<?xml version="1.0" standalone="yes"?>
<svg xmlns="http://www.w3.org/2000/svg" width="192" height="192">
<path style="fill:#010101; stroke:none;" d="M0 0L0 11L1 11L11 1L0 0z"/>
<path style="fill:#0140ff; stroke:none;" d="M11 0L12 1L11 0z"/>
<path style="fill:#219def; stroke:none;" d="M12.0039 0.688263C-4.43473 5.9014 0 27.7766 0 41L0 145C0 156.539 -3.77079 175.938 3.66435 185.522C12.1223 196.424 33.8126 192 46 192L138 192C150.58 192 167.989 195.119 179.996 191.312C196.435 186.099 192 164.223 192 151L192 47C192 35.4606 195.771 16.0622 188.336 6.47839C179.878 -4.42384 158.187 0 146 0L54 0C41.4203 0 24.0108 -3.11948 12.0039 0.688263z"/>
<path style="fill:#0140ff; stroke:none;" d="M180 0L181 1L180 0z"/>
<path style="fill:#010101; stroke:none;" d="M181 0L181 1L191 11L192 11L192 0L181 0z"/>
<path style="fill:#56b4f2; stroke:none;" d="M9 1L10 2L9 1M182 1L183 2L182 1M8 2L9 3L8 2M183 2L184 3L183 2M2 8L3 9L2 8M189 8L190 9L189 8M1 9L2 10L1 9M190 9L191 10L190 9z"/>
<path style="fill:#0140ff; stroke:none;" d="M0 11L1 12L0 11M191 11L192 12L191 11z"/>
<path style="fill:#56b4f2; stroke:none;" d="M26 41L26 42L60 43C52.8802 37.6061 34.825 41 26 41M133 41L133 42C140.404 42 161.752 38.4482 166 45L167 45L167 41L133 41z"/>
<path style="fill:#f8fcfe; stroke:none;" d="M26 42C28.9799 47.4136 37.3499 44.3089 40.4306 51.0185C43.5993 57.9201 42 67.606 42 75C42 94.1569 46.7702 120.807 40.4491 139C37.8028 146.616 27.8455 144.691 26 151L64 151L50.5509 139L49 112L49 62L50 62L66.6914 99L91 151L93 151L134 58L135 58L135 114C135 121.931 136.79 132.471 133.968 139.995C131.735 145.947 125.645 147.239 120 148L120 151L166 151C164.096 144.491 154.152 147.266 152.324 139C149.82 127.676 152 113.6 152 102C152 86.9984 149.104 68.6383 152.324 54C153.827 47.168 159.751 45.1993 166 45L166 42C158.404 42 139.873 38.5822 133.649 43.0278C128.609 46.6275 126.194 58.4555 123.694 64C114.984 83.3255 103.595 103.543 98 124L96 124C90.4089 103.558 78.1488 83.2431 69.2338 64C66.6537 58.4308 63.816 46.4888 58.5818 43.0278C51.9121 38.6176 33.9345 42 26 42z"/>
<path style="fill:#56b4f2; stroke:none;" d="M132 43L133 44L132 43M26 44L27 45L26 44M60 44L61 45L60 44M31 45L31 46L34 46L31 45M131 45L132 46L131 45M160.667 45.3333L161.333 45.6667L160.667 45.3333M35.6667 46.3333L36.3333 46.6667L35.6667 46.3333M61.3333 46.6667L61.6667 47.3333L61.3333 46.6667M157 46L158 47L157 46M38 47L39 48L38 47M130.333 47.6667L130.667 48.3333L130.333 47.6667M155 47L156 48L155 47M39 48L40 49L39 48M154 48L155 49L154 48M62 49L63 50L62 49M40.3333 50.6667L40.6667 51.3333L40.3333 50.6667M129 50L130 51L129 50M153 50L154 51L153 50M63 51L64 52L63 51M128 52L129 53L128 52M152 52L152 56L153 56L152 52M64 53L65 54L64 53M41 54L41 135L42 135L42 79L41 54M127.333 54.6667L127.667 55.3333L127.333 54.6667M65 55L66 56L65 55M66 57L67 58L66 57M126 57L127 58L126 57M134 58L135 59L134 58M67.3333 59.6667L67.6667 60.3333L67.3333 59.6667M125 59L126 60L125 59M133.333 60.6667L133.667 61.3333L133.333 60.6667M124.333 61.6667L124.667 62.3333L124.333 61.6667M49 62L49 135L50 135L50 83L49 62M68 62L69 63L68 62M132 62L133 63L132 62M123.333 63.6667L123.667 64.3333L123.333 63.6667M69 64L70 65L69 64M131.333 64.6667L131.667 65.3333L131.333 64.6667M51 66L52 67L51 66M70 66L71 67L70 66M122 66L123 67L122 66M130 67L131 68L130 67M52 68L53 69L52 68M71.3333 68.6667L71.6667 69.3333L71.3333 68.6667M121 68L122 69L121 68M129 69L130 70L129 69M53 70L54 71L53 70M72 70L73 71L72 70M120.333 70.6667L120.667 71.3333L120.333 70.6667M128 71L129 72L128 71M54 72L55 73L54 72M73.3333 72.6667L73.6667 73.3333L73.3333 72.6667M119 73L120 74L119 73M127.333 73.6667L127.667 74.3333L127.333 73.6667M55.3333 74.6667L55.6667 75.3333L55.3333 74.6667M74 75L75 76L74 75M118 75L119 76L118 75M126 76L127 77L126 76M56 77L57 78L56 77M75 77L76 78L75 77M117 77L118 78L117 77M125 78L126 79L125 78M57 79L58 80L57 79M76 79L77 80L76 79M116.333 79.6667L116.667 80.3333L116.333 79.6667M124.333 80.6667L124.667 81.3333L124.333 80.6667M58 81L59 82L58 81M77.3333 81.6667L77.6667 82.3333L77.3333 81.6667M115.333 81.6667L115.667 82.3333L115.333 81.6667M123 82L124 83L123 82M59 83L60 84L59 83M78 84L79 85L78 84M114 84L115 85L114 84M122.333 84.6667L122.667 85.3333L122.333 84.6667M60.3333 85.6667L60.6667 86.3333L60.3333 85.6667M79.3333 85.6667L79.6667 86.3333L79.3333 85.6667M113 86L114 87L113 86M61.3333 87.6667L61.6667 88.3333L61.3333 87.6667M121 87L122 88L121 87M80 88L81 89L80 88M112.333 88.6667L112.667 89.3333L112.333 88.6667M120 89L121 90L120 89M62 90L63 91L62 90M81 90L82 91L81 90M111 91L112 92L111 91M119.333 91.6667L119.667 92.3333L119.333 91.6667M63 92L64 93L63 92M82.3333 92.6667L82.6667 93.3333L82.3333 92.6667M110 93L111 94L110 93M118.333 93.6667L118.667 94.3333L118.333 93.6667M64 94L65 95L64 94M83.3333 94.6667L83.6667 95.3333L83.3333 94.6667M109.333 95.6667L109.667 96.3333L109.333 95.6667M65 96L66 97L65 96M117 96L118 97L117 96M84 97L85 98L84 97M66 98L67 99L66 98M85.3333 98.6667L85.6667 99.3333L85.3333 98.6667M108 98L109 99L108 98M116 98L117 99L116 98M67.3333 100.667L67.6667 101.333L67.3333 100.667M107 100L108 101L107 100M115.333 100.667L115.667 101.333L115.333 100.667M86 101L87 102L86 101M106.333 102.667L106.667 103.333L106.333 102.667M114.333 102.667L114.667 103.333L114.333 102.667M68 103L69 104L68 103M87 103L88 104L87 103M105.333 104.667L105.667 105.333L105.333 104.667M113.333 104.667L113.667 105.333L113.333 104.667M69 105L70 106L69 105M88.3333 105.667L88.6667 106.333L88.3333 105.667M70 107L71 108L70 107M89.3333 107.667L89.6667 108.333L89.3333 107.667M104 107L105 108L104 107M112 107L113 108L112 107M71 109L72 110L71 109M103 109L104 110L103 109M111 109L112 110L111 109M90 110L91 111L90 110M72.3333 111.667L72.6667 112.333L72.3333 111.667M102.333 111.667L102.667 112.333L102.333 111.667M110.333 111.667L110.667 112.333L110.333 111.667M91 112L92 113L91 112M73.3333 113.667L73.6667 114.333L73.3333 113.667M109.333 113.667L109.667 114.333L109.333 113.667M92 114L93 115L92 114M101 114L102 115L101 114M74 116L75 117L74 116M93 116L94 117L93 116M100 116L101 117L100 116M108 116L109 117L108 116M75 118L76 119L75 118M94.3333 118.667L94.6667 119.333L94.3333 118.667M99.3333 118.667L99.6667 119.333L99.3333 118.667M107 118L108 119L107 118M76 120L77 121L76 120M95.3333 120.667L95.6667 121.333L95.3333 120.667M106.333 120.667L106.667 121.333L106.333 120.667M98 121L99 122L98 121M77 122L78 123L77 122M97 122L96 124L98 124L97 122M105.333 122.667L105.667 123.333L105.333 122.667M78.3333 124.667L78.6667 125.333L78.3333 124.667M104 125L105 126L104 125M79.3333 126.667L79.6667 127.333L79.3333 126.667M103 127L104 128L103 127M80 129L81 130L80 129M102 129L103 130L102 129M81 131L82 132L81 131M101.333 131.667L101.667 132.333L101.333 131.667M82 133L83 134L82 133M100.333 133.667L100.667 134.333L100.333 133.667M83 135L84 136L83 135M99 136L100 137L99 136M134 136L134 139L135 139L134 136M40 137L40 140L41 140L40 137M84.3333 137.667L84.6667 138.333L84.3333 137.667M152 137L152 141L153 141L152 137M50.3333 138.667L50.6667 139.333L50.3333 138.667M98 138L99 139L98 138M85.3333 139.667L85.6667 140.333L85.3333 139.667M97.3333 140.667L97.6667 141.333L97.3333 140.667M39 141L40 142L39 141M51 141L52 142L51 141M133.333 141.667L133.667 142.333L133.333 141.667M86 142L87 143L86 142M153 142L154 143L153 142M38 143L39 144L38 143M52 143L53 144L52 143M96 143L97 144L96 143M37 144L38 145L37 144M53 144L54 145L53 144M87 144L88 145L87 144M154 144L155 145L154 144M34.6667 145.333L35.3333 145.667L34.6667 145.333M55 145L56 146L55 145M95 145L96 146L95 145M129.667 145.333L130.333 145.667L129.667 145.333M156 145L157 146L156 145M31.6667 146.333L32.3333 146.667L31.6667 146.333M57.6667 146.333L58.3333 146.667L57.6667 146.333M88.3333 146.667L88.6667 147.333L88.3333 146.667M126.667 146.333L127.333 146.667L126.667 146.333M159 146L160 147L159 146M26 147L26 148L29 148L26 147M61 147L61 148L64 148L61 147M94 147L95 148L94 147M120 147L120 148L124 148L120 147M163 147L163 148L166 148L163 147M25 148L25 151L26 151L25 148M64 148L64 151L65 151L64 148M89 148L90 149L89 148M166 148L166 151L167 151L166 148M93 149L94 150L93 149M90 150L91 151L90 150z"/>
<path style="fill:#0140ff; stroke:none;" d="M0 180L1 181L0 180M191 180L192 181L191 180z"/>
<path style="fill:#010101; stroke:none;" d="M0 181L0 192L11 192L11 191L0 181M191 181L181 191L181 192L192 192L191 181z"/>
<path style="fill:#56b4f2; stroke:none;" d="M1 182L2 183L1 182M190 182L191 183L190 182M2 183L3 184L2 183M189 183L190 184L189 183M8 189L9 190L8 189M183 189L184 190L183 189M9 190L10 191L9 190M182 190L183 191L182 190z"/>
<path style="fill:#0140ff; stroke:none;" d="M11 191L12 192L11 191M180 191L181 192L180 191z"/>
</svg>
